<svg width="48" height="48" viewBox="0 0 48 48" fill="none" xmlns="http://www.w3.org/2000/svg">
<rect x="0.8" y="0.8" width="46.4" height="46.4" rx="23.2" fill="#2A2A2F"/>
<rect x="0.8" y="0.8" width="46.4" height="46.4" rx="23.2" stroke="#44FFFF" stroke-width="1.6"/>
<path d="M24 45.6004C35.9294 45.6004 45.6 35.9297 45.6 24.0004C45.6 12.071 35.9294 2.40039 24 2.40039C12.0707 2.40039 2.4 12.071 2.4 24.0004C2.4 35.9297 12.0707 45.6004 24 45.6004Z" stroke="#44FFFF" stroke-width="1.6" stroke-dasharray="3.2 3.2"/>
<path d="M12.8704 30.5996V17.1596H22.3552L22.336 19.694H15.232L15.9424 18.9836L15.9616 30.5996H12.8704Z" fill="white"/>
<path d="M27.7269 30.5996V18.9836L28.4373 19.694H23.4453V17.1596H35.0997V19.694H30.1077L30.7989 18.9836V30.5996H27.7269Z" fill="#44FFFF"/>
</svg>
